<svg width="94" height="18" viewBox="0 0 94 18" fill="none" xmlns="http://www.w3.org/2000/svg">
<path d="M18.396 13.168C17.78 13.168 17.2107 13.014 16.688 12.706C16.1653 12.398 15.75 11.9827 15.442 11.46C15.134 10.9373 14.98 10.368 14.98 9.752V6.49C14.98 5.874 15.134 5.30467 15.442 4.782C15.75 4.25933 16.1653 3.844 16.688 3.536C17.2107 3.228 17.78 3.074 18.396 3.074C18.9093 3.074 19.39 3.16267 19.838 3.34C20.286 3.51733 20.6733 3.76933 21 4.096C21.0467 4.13333 21.07 4.18933 21.07 4.264C21.07 4.32933 21.0467 4.39 21 4.446C20.9347 4.52067 20.804 4.656 20.608 4.852C20.5427 4.89867 20.4773 4.922 20.412 4.922C20.3373 4.922 20.2673 4.88933 20.202 4.824C19.726 4.376 19.1287 4.152 18.41 4.152C17.9993 4.152 17.6167 4.25933 17.262 4.474C16.9167 4.68867 16.6413 4.978 16.436 5.342C16.2307 5.69667 16.128 6.07933 16.128 6.49V9.752C16.128 10.1627 16.2307 10.55 16.436 10.914C16.6413 11.2687 16.9167 11.5533 17.262 11.768C17.6167 11.9827 17.9993 12.09 18.41 12.09C18.8207 12.09 19.1987 11.9873 19.544 11.782C19.8893 11.5767 20.1647 11.3013 20.37 10.956C20.5753 10.6013 20.678 10.2187 20.678 9.808V8.702H18.704C18.648 8.702 18.6013 8.68333 18.564 8.646C18.5267 8.60867 18.508 8.562 18.508 8.506V7.862C18.508 7.806 18.5267 7.75933 18.564 7.722C18.6013 7.68467 18.648 7.666 18.704 7.666H21.294C21.434 7.666 21.5507 7.71733 21.644 7.82C21.7467 7.91333 21.798 8.03 21.798 8.17V9.752C21.798 10.368 21.644 10.9373 21.336 11.46C21.0373 11.9827 20.6267 12.398 20.104 12.706C19.5813 13.014 19.012 13.168 18.396 13.168ZM27.119 13.182C26.503 13.182 25.929 13.028 25.397 12.72C24.8743 12.412 24.459 11.9967 24.151 11.474C23.843 10.9513 23.689 10.382 23.689 9.766V6.504C23.689 5.888 23.843 5.31867 24.151 4.796C24.459 4.27333 24.8743 3.858 25.397 3.55C25.929 3.242 26.503 3.088 27.119 3.088C27.735 3.088 28.3043 3.242 28.827 3.55C29.359 3.858 29.779 4.27333 30.087 4.796C30.395 5.31867 30.549 5.888 30.549 6.504V9.766C30.549 10.382 30.395 10.9513 30.087 11.474C29.779 11.9967 29.359 12.412 28.827 12.72C28.3043 13.028 27.735 13.182 27.119 13.182ZM27.119 12.104C27.5297 12.104 27.9077 11.9967 28.253 11.782C28.6077 11.5673 28.8877 11.2827 29.093 10.928C29.2983 10.564 29.401 10.1767 29.401 9.766V6.504C29.401 6.09333 29.2983 5.71067 29.093 5.356C28.8877 4.992 28.6077 4.70267 28.253 4.488C27.9077 4.27333 27.5297 4.166 27.119 4.166C26.7083 4.166 26.3257 4.27333 25.971 4.488C25.6257 4.70267 25.3503 4.992 25.145 5.356C24.9397 5.71067 24.837 6.09333 24.837 6.504V9.766C24.837 10.1767 24.9397 10.564 25.145 10.928C25.3503 11.2827 25.6257 11.5673 25.971 11.782C26.3257 11.9967 26.7083 12.104 27.119 12.104ZM33.3597 13C33.2197 13 33.0984 12.9533 32.9957 12.86C32.9024 12.7573 32.8557 12.636 32.8557 12.496V3.466C32.8557 3.41 32.8744 3.36333 32.9117 3.326C32.949 3.28867 32.9957 3.27 33.0517 3.27H33.8077C33.8637 3.27 33.9104 3.28867 33.9477 3.326C33.985 3.36333 34.0037 3.41 34.0037 3.466V11.922H37.5457C37.6017 11.922 37.6484 11.9407 37.6857 11.978C37.723 12.0153 37.7417 12.062 37.7417 12.118V12.804C37.7417 12.86 37.723 12.9067 37.6857 12.944C37.6484 12.9813 37.6017 13 37.5457 13H33.3597ZM39.9906 13C39.8506 13 39.7292 12.9533 39.6266 12.86C39.5332 12.7573 39.4866 12.636 39.4866 12.496V3.774C39.4866 3.634 39.5332 3.51733 39.6266 3.424C39.7292 3.32133 39.8506 3.27 39.9906 3.27H42.4826C43.1452 3.27 43.7566 3.438 44.3166 3.774C44.8766 4.10067 45.3199 4.54867 45.6466 5.118C45.9732 5.678 46.1366 6.294 46.1366 6.966V9.304C46.1366 9.976 45.9732 10.5967 45.6466 11.166C45.3199 11.726 44.8766 12.174 44.3166 12.51C43.7566 12.8367 43.1452 13 42.4826 13H39.9906ZM42.4826 11.922C42.9399 11.922 43.3599 11.81 43.7426 11.586C44.1252 11.362 44.4286 11.0587 44.6526 10.676C44.8766 10.284 44.9886 9.85933 44.9886 9.402V6.854C44.9886 6.39667 44.8766 5.97667 44.6526 5.594C44.4286 5.21133 44.1252 4.908 43.7426 4.684C43.3599 4.46 42.9399 4.348 42.4826 4.348H40.6346V11.922H42.4826ZM48.8089 13C48.6689 13 48.5476 12.9533 48.4449 12.86C48.3516 12.7573 48.3049 12.636 48.3049 12.496V3.774C48.3049 3.634 48.3516 3.51733 48.4449 3.424C48.5476 3.32133 48.6689 3.27 48.8089 3.27H53.4149C53.4709 3.27 53.5176 3.28867 53.5549 3.326C53.5923 3.36333 53.6109 3.41 53.6109 3.466V4.152C53.6109 4.208 53.5923 4.25467 53.5549 4.292C53.5176 4.32933 53.4709 4.348 53.4149 4.348H49.4529V7.344H52.4769C52.5329 7.344 52.5796 7.36267 52.6169 7.4C52.6543 7.43733 52.6729 7.484 52.6729 7.54V8.198C52.6729 8.254 52.6543 8.30067 52.6169 8.338C52.5796 8.37533 52.5329 8.394 52.4769 8.394H49.4529V11.922H53.4149C53.4709 11.922 53.5176 11.9407 53.5549 11.978C53.5923 12.0153 53.6109 12.062 53.6109 12.118V12.804C53.6109 12.86 53.5923 12.9067 53.5549 12.944C53.5176 12.9813 53.4709 13 53.4149 13H48.8089ZM55.8427 13C55.7867 13 55.7401 12.9813 55.7027 12.944C55.6654 12.9067 55.6467 12.86 55.6467 12.804V3.564C55.6467 3.48 55.6747 3.41 55.7307 3.354C55.7867 3.298 55.8567 3.27 55.9407 3.27H56.7667C56.8414 3.27 56.9114 3.28867 56.9767 3.326C57.0421 3.354 57.0934 3.40067 57.1307 3.466L61.5547 11.194V3.466C61.5547 3.41 61.5734 3.36333 61.6107 3.326C61.6481 3.28867 61.6947 3.27 61.7507 3.27H62.4507C62.5067 3.27 62.5534 3.28867 62.5907 3.326C62.6281 3.36333 62.6467 3.41 62.6467 3.466V12.706C62.6467 12.79 62.6187 12.86 62.5627 12.916C62.5067 12.972 62.4367 13 62.3527 13H61.5127C61.4381 13 61.3681 12.986 61.3027 12.958C61.2374 12.9207 61.1861 12.8693 61.1487 12.804L56.7387 5.09V12.804C56.7387 12.86 56.7201 12.9067 56.6827 12.944C56.6454 12.9813 56.5987 13 56.5427 13H55.8427ZM69.8243 13.084C69.7217 13.084 69.6283 13.056 69.5443 13C69.4697 12.944 69.4183 12.8693 69.3903 12.776L67.5423 7.12L67.1923 5.86L67.0523 7.162L66.4503 12.65C66.4317 12.7527 66.385 12.8367 66.3103 12.902C66.2357 12.9673 66.1517 13 66.0583 13H65.0083C64.9057 13 64.8263 12.9673 64.7703 12.902C64.7143 12.8367 64.691 12.7527 64.7003 12.65L65.8623 3.368C65.8717 3.24667 65.9183 3.14867 66.0023 3.074C66.0957 2.99 66.2077 2.948 66.3383 2.948H67.6123C67.715 2.948 67.8037 2.98067 67.8783 3.046C67.9623 3.102 68.0183 3.17667 68.0463 3.27L70.1463 9.724L70.4263 10.69L70.7063 9.738L72.8203 3.256C72.8483 3.16267 72.8997 3.088 72.9743 3.032C73.0583 2.976 73.1517 2.948 73.2543 2.948H74.4163C74.547 2.948 74.6543 2.99 74.7383 3.074C74.8317 3.14867 74.883 3.24667 74.8923 3.368L76.0543 12.65C76.0637 12.7527 76.0403 12.8367 75.9843 12.902C75.9283 12.9673 75.849 13 75.7463 13H74.6543C74.5517 13 74.463 12.9673 74.3883 12.902C74.3137 12.8367 74.2717 12.7573 74.2623 12.664L73.6323 7.064L73.4923 5.86L73.1283 7.176L71.3223 12.762C71.2943 12.8553 71.2383 12.9347 71.1543 13C71.0797 13.056 70.991 13.084 70.8883 13.084H69.8243ZM78.571 13C78.403 13 78.2583 12.944 78.137 12.832C78.025 12.7107 77.969 12.566 77.969 12.398V3.592C77.969 3.424 78.025 3.284 78.137 3.172C78.2583 3.05067 78.403 2.99 78.571 2.99H83.345C83.429 2.99 83.499 3.018 83.555 3.074C83.611 3.13 83.639 3.2 83.639 3.284V4.334C83.639 4.418 83.611 4.488 83.555 4.544C83.499 4.6 83.429 4.628 83.345 4.628H79.677V7.008H82.407C82.491 7.008 82.561 7.036 82.617 7.092C82.673 7.148 82.701 7.218 82.701 7.302V8.296C82.701 8.38 82.673 8.45 82.617 8.506C82.561 8.562 82.491 8.59 82.407 8.59H79.677V11.362H83.345C83.429 11.362 83.499 11.39 83.555 11.446C83.611 11.502 83.639 11.572 83.639 11.656V12.706C83.639 12.79 83.611 12.86 83.555 12.916C83.499 12.972 83.429 13 83.345 13H78.571ZM86.1725 13C86.0045 13 85.8598 12.944 85.7385 12.832C85.6265 12.7107 85.5705 12.566 85.5705 12.398V3.592C85.5705 3.424 85.6265 3.284 85.7385 3.172C85.8598 3.05067 86.0045 2.99 86.1725 2.99H88.9165C89.6352 2.99 90.2885 3.16267 90.8765 3.508C91.4645 3.85333 91.9265 4.32467 92.2625 4.922C92.6078 5.51933 92.7805 6.17733 92.7805 6.896V9.094C92.7805 9.81267 92.6078 10.4707 92.2625 11.068C91.9265 11.6653 91.4645 12.1367 90.8765 12.482C90.2885 12.8273 89.6352 13 88.9165 13H86.1725ZM88.8465 11.362C89.2478 11.362 89.6165 11.264 89.9525 11.068C90.2978 10.8627 90.5685 10.592 90.7645 10.256C90.9698 9.91067 91.0725 9.53267 91.0725 9.122V6.854C91.0725 6.45267 90.9698 6.084 90.7645 5.748C90.5685 5.40267 90.2978 5.132 89.9525 4.936C89.6165 4.73067 89.2478 4.628 88.8465 4.628H87.2785V11.362H88.8465Z" fill="white"/>
<g clip-path="url(#clip0_54_11)">
<path d="M9.3695 7.44452C10.1715 7.62817 10.9705 7.1269 11.1542 6.32492C11.3378 5.52293 10.8365 4.72391 10.0346 4.54026C9.23257 4.35661 8.43355 4.85787 8.2499 5.65986C8.06625 6.46185 8.56751 7.26087 9.3695 7.44452Z" stroke="white" stroke-linecap="round" stroke-linejoin="round"/>
<path d="M1.49079 3.41965H0.553284V6.5C0.553284 8.02372 1.7885 9.25893 3.31221 9.25893C4.83592 9.25893 6.07114 8.02372 6.07114 6.5V3.41965H5.13364" stroke="white" stroke-linecap="round" stroke-linejoin="round"/>
<path d="M3.36578 9.28572V10.3209C3.36578 12.0718 4.7851 13.491 6.53591 13.491C8.28673 13.491 9.70602 12.0718 9.70602 10.3209V7.65179" stroke="white" stroke-linecap="round" stroke-linejoin="round"/>
</g>
<defs>
<clipPath id="clip0_54_11">
<rect width="12" height="12" fill="white" transform="translate(0 2)"/>
</clipPath>
</defs>
</svg>
