<svg width="800" height="800" viewBox="0 0 800 800" fill="none" xmlns="http://www.w3.org/2000/svg">
<g clip-path="url(#clip0_59_2)">
<path d="M236.138 772.401H179.826V612.524C179.826 581.451 195.709 553.258 222.315 537.105C228.831 533.149 230.904 524.661 226.949 518.147C222.995 511.633 214.507 509.558 207.991 513.513C173.073 534.711 152.226 571.727 152.226 612.524V786.201C152.226 793.823 158.404 800.002 166.026 800.002H236.138C243.76 800.002 249.938 793.823 249.938 786.201C249.938 778.58 243.76 772.401 236.138 772.401Z" fill="#99720E"/>
<path d="M514.78 772.401H380.384V657.974L479.293 560.832C484.73 555.49 484.808 546.754 479.469 541.316C474.13 535.879 465.392 535.801 459.953 541.14L366.583 632.843L273.212 541.138C267.774 535.799 259.037 535.877 253.696 541.315C248.357 546.752 248.435 555.49 253.873 560.829L352.781 657.971V772.398H282.134C274.512 772.398 268.334 778.576 268.334 786.198C268.334 793.82 274.512 799.998 282.134 799.998H514.777C522.399 799.998 528.577 793.82 528.577 786.198C528.58 778.578 522.402 772.401 514.78 772.401Z" fill="#99720E"/>
<path d="M561.308 548.024C551.966 534.132 539.466 522.197 525.16 513.511C518.644 509.557 510.157 511.633 506.202 518.146C502.247 524.66 504.324 533.147 510.836 537.104C521.747 543.727 531.28 552.829 538.405 563.424C541.069 567.385 545.429 569.526 549.868 569.526C552.516 569.526 555.193 568.766 557.555 567.176C563.883 562.922 565.562 554.347 561.308 548.024Z" fill="#99720E"/>
<path d="M572.548 77.8597C532.233 25.6126 449.063 -5.36094 365.57 0.767208C365.348 0.784396 365.125 0.806271 364.903 0.832833C360.555 1.36565 267.364 13.4704 250.381 69.3925C242.548 67.3893 232.56 65.6112 221.663 65.5612C197.749 65.4534 164.862 73.6097 144.551 113.097C124.815 151.48 116.543 218.518 134.916 266.426C124.388 276.729 117.838 291.084 117.838 306.942C117.838 332.472 134.583 354.097 157.91 361.201C155.73 412.133 179.359 461.538 220.842 491.668L296.373 546.554C317.367 561.812 341.965 569.437 366.576 569.437C391.181 569.437 415.795 561.808 436.795 546.554L512.325 491.669C518.502 487.183 524.383 482.191 529.813 476.83C535.908 471.741 584.869 429.517 615.281 361.937C644.94 296.029 661.603 193.243 572.548 77.8597ZM160.449 332.437C151.469 327.472 145.438 317.92 145.438 306.945C145.438 294.018 153.91 283.045 165.587 279.25L160.449 332.437ZM508.483 459.066C504.59 462.747 500.436 466.196 496.104 469.342L420.575 524.227C388.272 547.687 344.88 547.687 312.597 524.229L237.062 469.339C201.262 443.338 181.668 399.823 185.924 355.772L194.804 263.82C232.271 248.684 263.496 208.179 279.29 184.451C298.261 207.14 337.662 243.849 394.098 243.842C396.827 243.842 399.608 243.756 402.416 243.576C444.058 240.942 475.336 252.839 495.394 278.937C529.904 323.843 526.435 403.016 508.483 459.066ZM590.504 349.739C577.562 378.77 560.568 402.981 545.685 420.911C548.563 402.294 549.787 383.423 549.212 365.27C547.883 323.247 536.84 287.579 517.277 262.124C491.275 228.293 452.056 212.788 400.672 216.038C332.508 220.331 290.45 153.362 290.048 152.708C287.489 148.513 282.892 145.988 277.976 146.097C273.062 146.201 268.571 148.912 266.189 153.208C265.778 153.947 224.656 227.343 178.191 240.387C173.299 241.759 169.629 245.693 168.498 250.549C165.284 250.893 162.152 251.515 159.118 252.376C144.722 210.257 154.721 153.677 169.096 125.721C180.295 103.949 197.191 93.2973 220.752 93.1629C239.732 93.0082 255.699 100.119 255.818 100.175C260.09 102.121 265.057 101.761 269.006 99.2207C272.954 96.6816 275.339 92.3098 275.339 87.616C275.339 42.3189 362.558 29.0392 368.005 28.2658C442.499 22.911 515.872 49.5877 550.699 94.7238C615.257 178.366 628.648 264.167 590.504 349.739Z" fill="#99720E"/>
<path d="M284.668 310.029C277.046 310.029 270.868 316.207 270.868 323.829V345.901C270.868 353.523 277.046 359.701 284.668 359.701C292.29 359.701 298.468 353.523 298.468 345.901V323.829C298.468 316.209 292.29 310.029 284.668 310.029Z" fill="#99720E"/>
<path d="M407.357 299.37L407.357 299.37C402.065 294.08 402.065 285.499 407.357 280.208C430.037 257.528 466.941 257.528 489.619 280.208L489.786 280.041L489.619 280.208C494.91 285.497 494.91 294.077 489.62 299.37C486.975 302.016 483.507 303.339 480.039 303.339C476.572 303.339 473.103 302.015 470.458 299.37C458.343 287.256 438.634 287.256 426.519 299.37L426.519 299.37C421.229 304.661 412.648 304.661 407.357 299.37Z" fill="#99720E" stroke="#99720E" stroke-width="0.5"/>
<path d="M325.976 280.031C303.2 257.251 266.135 257.254 243.359 280.031C237.97 285.42 237.97 294.159 243.359 299.547C248.748 304.936 257.487 304.936 262.874 299.547C274.893 287.531 294.445 287.531 306.461 299.547C309.154 302.24 312.687 303.589 316.218 303.589C319.75 303.589 323.282 302.242 325.976 299.547C331.365 294.159 331.365 285.42 325.976 280.031Z" fill="#99720E"/>
<path d="M448.489 310.029C440.867 310.029 434.689 316.207 434.689 323.829V345.901C434.689 353.523 440.867 359.701 448.489 359.701C456.111 359.701 462.289 353.523 462.289 345.901V323.829C462.289 316.209 456.111 310.029 448.489 310.029Z" fill="#99720E"/>
<path d="M412.789 425.889C407.402 420.5 398.664 420.5 393.273 425.889C378.553 440.609 354.6 440.609 339.881 425.889C334.492 420.5 325.753 420.5 320.365 425.889C314.976 431.278 314.976 440.017 320.365 445.405C333.106 458.146 349.842 464.517 366.576 464.517C383.311 464.517 400.047 458.147 412.788 445.405C418.178 440.014 418.178 431.277 412.789 425.889Z" fill="#99720E"/>
<path d="M381.003 361.815H380.375V333.295C380.375 325.673 374.197 319.495 366.575 319.495C358.953 319.495 352.775 325.673 352.775 333.295V361.815H352.147C344.525 361.815 338.347 367.994 338.347 375.616C338.347 383.237 344.525 389.416 352.147 389.416H381.002C388.623 389.416 394.802 383.237 394.802 375.616C394.802 367.994 388.623 361.815 381.003 361.815Z" fill="#99720E"/>
<path d="M668.592 711.962C660.97 711.962 654.792 718.14 654.792 725.762V772.4H572.585V662.656H587.277H640.098H654.79V679.762C654.79 687.384 660.968 693.562 668.59 693.562C676.212 693.562 682.39 687.384 682.39 679.762V648.856C682.392 641.234 676.214 635.056 668.592 635.056H653.899V557.877C653.899 539.921 639.292 525.313 621.335 525.313H606.041C588.085 525.313 573.477 539.921 573.477 557.877V635.057H558.785C551.163 635.057 544.985 641.235 544.985 648.857V786.201C544.985 793.823 551.163 800.002 558.785 800.002H668.592C676.214 800.002 682.392 793.823 682.392 786.201V725.764C682.392 718.142 676.212 711.962 668.592 711.962ZM601.079 557.877C601.079 555.14 603.305 552.913 606.043 552.913H621.337C624.074 552.913 626.301 555.14 626.301 557.877V635.057H601.079V557.877Z" fill="#99720E"/>
<path d="M154.143 520.604H148.868V467.675C148.868 460.596 143.532 454.766 136.663 453.975V400.947C136.663 397.122 135.076 393.469 132.28 390.858L89.9613 351.358C85.941 347.606 80.0847 346.6 75.0457 348.789C70.0066 350.978 66.7456 355.951 66.7456 361.447V453.977C59.8769 454.767 54.5409 460.597 54.5409 467.677V520.607H49.2659C41.644 520.607 35.4658 526.785 35.4658 534.407V688.965C35.4658 696.587 41.644 702.765 49.2659 702.765H126.546C134.168 702.765 140.346 696.587 140.346 688.965C140.346 681.343 134.165 675.165 126.544 675.165H63.0644V548.205H154.144C161.766 548.205 167.944 542.027 167.944 534.405C167.943 526.783 161.765 520.604 154.143 520.604ZM94.3442 393.203L109.065 406.942V453.875H94.3442V393.203ZM121.269 520.604H82.141V481.474H121.271L121.269 520.604Z" fill="#99720E"/>
<path d="M760.49 50.9518C755.101 45.5611 746.362 45.5627 740.975 50.9518L716.62 75.3065C711.231 80.6956 711.231 89.4347 716.62 94.8222C719.314 97.5191 722.847 98.8644 726.378 98.8644C729.909 98.8644 733.442 97.5176 736.136 94.8222L760.49 70.4675C765.881 65.0784 765.881 56.3393 760.49 50.9518Z" fill="#99720E"/>
<path d="M687.917 123.527C682.528 118.138 673.789 118.14 668.401 123.527L644.046 147.882C638.657 153.271 638.657 162.01 644.046 167.398C646.74 170.093 650.273 171.44 653.804 171.44C657.335 171.44 660.868 170.093 663.562 167.398L687.917 143.043C693.306 137.652 693.306 128.915 687.917 123.527Z" fill="#99720E"/>
<path d="M760.494 147.882L736.139 123.527C730.75 118.138 722.011 118.138 716.623 123.527C711.234 128.916 711.234 137.652 716.623 143.043L740.978 167.398C743.672 170.093 747.204 171.44 750.736 171.44C754.267 171.44 757.8 170.093 760.494 167.398C765.883 162.007 765.883 153.271 760.494 147.882Z" fill="#99720E"/>
<path d="M687.917 75.3065L663.562 50.9518C658.174 45.5611 649.437 45.5627 644.046 50.9518C638.657 56.3408 638.657 65.0768 644.046 70.4675L668.401 94.8222C671.095 97.5176 674.628 98.8644 678.159 98.8644C681.69 98.8644 685.223 97.5176 687.917 94.8222C693.306 89.4316 693.306 80.6956 687.917 75.3065Z" fill="#99720E"/>
<path d="M414.769 690.251C422.39 690.251 428.569 684.073 428.569 676.451C428.569 668.829 422.39 662.651 414.769 662.651C407.147 662.651 400.969 668.829 400.969 676.451C400.969 684.073 407.147 690.251 414.769 690.251Z" fill="#99720E"/>
</g>
<defs>
<clipPath id="clip0_59_2">
<rect width="800" height="800" fill="white"/>
</clipPath>
</defs>
</svg>
