<svg xmlns="http://www.w3.org/2000/svg" width="32.636" height="32.629" viewBox="0 0 32.636 32.629">
  <path id="instagram_3_" data-name="instagram (3)" d="M16.247,39.774a8.366,8.366,0,1,0,8.366,8.366A8.352,8.352,0,0,0,16.247,39.774Zm0,13.8a5.439,5.439,0,1,1,5.439-5.439A5.449,5.449,0,0,1,16.247,53.578ZM26.906,39.432a1.951,1.951,0,1,1-1.951-1.951A1.947,1.947,0,0,1,26.906,39.432Zm5.541,1.98a9.656,9.656,0,0,0-2.636-6.837,9.72,9.72,0,0,0-6.837-2.636c-2.694-.153-10.768-.153-13.462,0a9.706,9.706,0,0,0-6.837,2.628A9.688,9.688,0,0,0,.04,41.4C-.113,44.1-.113,52.173.04,54.867A9.656,9.656,0,0,0,2.675,61.7a9.732,9.732,0,0,0,6.837,2.636c2.694.153,10.768.153,13.462,0A9.656,9.656,0,0,0,29.811,61.7a9.72,9.72,0,0,0,2.636-6.837C32.6,52.173,32.6,44.106,32.446,41.412Zm-3.48,16.345a5.506,5.506,0,0,1-3.1,3.1c-2.148.852-7.244.655-9.618.655s-7.477.189-9.618-.655a5.506,5.506,0,0,1-3.1-3.1c-.852-2.148-.655-7.244-.655-9.618s-.189-7.477.655-9.618a5.506,5.506,0,0,1,3.1-3.1c2.148-.852,7.244-.655,9.618-.655s7.477-.189,9.618.655a5.506,5.506,0,0,1,3.1,3.1c.852,2.148.655,7.244.655,9.618S29.818,55.617,28.966,57.757Z" transform="translate(0.075 -31.825)" fill="#fff"/>
</svg>
